REM DIRINDEX 1\3,1\2\4,1\2\5,1\2\6
REM DIRNAME cjc137,folder01,folder02,folder03,folder04,folder05
TITLE ""
FILE "145.mp3" MP3
  TRACK 01 AUDIO
    TITLE "0:"
    INDEX 01 00:00:00
  TRACK 02 AUDIO
    TITLE "4:cjc137_6325"
    INDEX 01 00:00:03
  TRACK 03 AUDIO
    TITLE "0:"
    INDEX 01 00:01:15
  TRACK 04 AUDIO
    TITLE "6:cjc137_6326"
    INDEX 01 00:01:26
  TRACK 05 AUDIO
    TITLE "0:"
    INDEX 01 00:02:38
  TRACK 06 AUDIO
    TITLE "5:cjc137_6327"
    INDEX 01 00:02:45
  TRACK 07 AUDIO
    TITLE "0:"
    INDEX 01 00:03:57
  TRACK 08 AUDIO
    TITLE "4:cjc137_6328"
    INDEX 01 00:04:72
  TRACK 09 AUDIO
    TITLE "0:"
    INDEX 01 00:06:20
  TRACK 10 AUDIO
    TITLE "6:cjc137_6329"
    INDEX 01 00:06:28
  TRACK 11 AUDIO
    TITLE "0:"
    INDEX 01 00:07:27
  TRACK 12 AUDIO
    TITLE "5:cjc137_6330"
    INDEX 01 00:07:33
  TRACK 13 AUDIO
    TITLE "0:"
    INDEX 01 00:08:56
  TRACK 14 AUDIO
    TITLE "4:cjc137_6331"
    INDEX 01 00:09:63
  TRACK 15 AUDIO
    TITLE "0:"
    INDEX 01 00:10:68
  TRACK 16 AUDIO
    TITLE "6:cjc137_6332"
    INDEX 01 00:11:01
  TRACK 17 AUDIO
    TITLE "0:"
    INDEX 01 00:12:28
  TRACK 18 AUDIO
    TITLE "5:cjc137_6333"
    INDEX 01 00:12:32
  TRACK 19 AUDIO
    TITLE "0:"
    INDEX 01 00:13:35
  TRACK 20 AUDIO
    TITLE "4:cjc137_6334"
    INDEX 01 00:14:47
  TRACK 21 AUDIO
    TITLE "0:"
    INDEX 01 00:15:50
  TRACK 22 AUDIO
    TITLE "6:cjc137_6335"
    INDEX 01 00:15:58
  TRACK 23 AUDIO
    TITLE "0:"
    INDEX 01 00:16:49
  TRACK 24 AUDIO
    TITLE "5:cjc137_6336"
    INDEX 01 00:16:53
  TRACK 25 AUDIO
    TITLE "0:"
    INDEX 01 00:17:57
  TRACK 26 AUDIO
    TITLE "4:cjc137_6337"
    INDEX 01 00:18:64
  TRACK 27 AUDIO
    TITLE "0:"
    INDEX 01 00:20:06
  TRACK 28 AUDIO
    TITLE "6:cjc137_6338"
    INDEX 01 00:20:12
  TRACK 29 AUDIO
    TITLE "0:"
    INDEX 01 00:21:29
  TRACK 30 AUDIO
    TITLE "5:cjc137_6339"
    INDEX 01 00:21:31
  TRACK 31 AUDIO
    TITLE "0:"
    INDEX 01 00:22:48
  TRACK 32 AUDIO
    TITLE "4:cjc137_6340"
    INDEX 01 00:23:55
  TRACK 33 AUDIO
    TITLE "0:"
    INDEX 01 00:25:07
  TRACK 34 AUDIO
    TITLE "6:cjc137_6341"
    INDEX 01 00:25:11
  TRACK 35 AUDIO
    TITLE "0:"
    INDEX 01 00:26:15
  TRACK 36 AUDIO
    TITLE "5:cjc137_6342"
    INDEX 01 00:26:20
  TRACK 37 AUDIO
    TITLE "0:"
    INDEX 01 00:27:47
  TRACK 38 AUDIO
    TITLE "4:cjc137_6343"
    INDEX 01 00:28:51
  TRACK 39 AUDIO
    TITLE "0:"
    INDEX 01 00:29:56
  TRACK 40 AUDIO
    TITLE "6:cjc137_6344"
    INDEX 01 00:29:68
  TRACK 41 AUDIO
    TITLE "0:"
    INDEX 01 00:30:50
  TRACK 42 AUDIO
    TITLE "5:cjc137_6345"
    INDEX 01 00:30:57
  TRACK 43 AUDIO
    TITLE "0:"
    INDEX 01 00:31:61
  TRACK 44 AUDIO
    TITLE "4:cjc137_6346"
    INDEX 01 00:33:03
  TRACK 45 AUDIO
    TITLE "0:"
    INDEX 01 00:34:20
  TRACK 46 AUDIO
    TITLE "6:cjc137_6347"
    INDEX 01 00:34:28
  TRACK 47 AUDIO
    TITLE "0:"
    INDEX 01 00:35:47
  TRACK 48 AUDIO
    TITLE "5:cjc137_6348"
    INDEX 01 00:35:53
  TRACK 49 AUDIO
    TITLE "0:"
    INDEX 01 00:36:68
  TRACK 50 AUDIO
    TITLE "4:cjc137_6349"
    INDEX 01 00:38:04
  TRACK 51 AUDIO
    TITLE "0:"
    INDEX 01 00:39:29
  TRACK 52 AUDIO
    TITLE "6:cjc137_6350"
    INDEX 01 00:39:35
  TRACK 53 AUDIO
    TITLE "0:"
    INDEX 01 00:40:54
  TRACK 54 AUDIO
    TITLE "5:cjc137_6351"
    INDEX 01 00:40:62
  TRACK 55 AUDIO
    TITLE "0:"
    INDEX 01 00:42:10
  TRACK 56 AUDIO
    TITLE "4:cjc137_6352"
    INDEX 01 00:43:23
  TRACK 57 AUDIO
    TITLE "0:"
    INDEX 01 00:44:22
  TRACK 58 AUDIO
    TITLE "6:cjc137_6353"
    INDEX 01 00:44:26
  TRACK 59 AUDIO
    TITLE "0:"
    INDEX 01 00:45:16
  TRACK 60 AUDIO
    TITLE "5:cjc137_6354"
    INDEX 01 00:45:26
  TRACK 61 AUDIO
    TITLE "0:"
    INDEX 01 00:46:25
  TRACK 62 AUDIO
    TITLE "4:cjc137_6355"
    INDEX 01 00:47:32
  TRACK 63 AUDIO
    TITLE "0:"
    INDEX 01 00:48:59
  TRACK 64 AUDIO
    TITLE "6:cjc137_6356"
    INDEX 01 00:48:67
  TRACK 65 AUDIO
    TITLE "0:"
    INDEX 01 00:50:27
  TRACK 66 AUDIO
    TITLE "5:cjc137_6357"
    INDEX 01 00:50:33
  TRACK 67 AUDIO
    TITLE "0:"
    INDEX 01 00:51:58
  TRACK 68 AUDIO
    TITLE "4:cjc137_6358"
    INDEX 01 00:52:69
  TRACK 69 AUDIO
    TITLE "0:"
    INDEX 01 00:54:01
  TRACK 70 AUDIO
    TITLE "6:cjc137_6359"
    INDEX 01 00:54:11
  TRACK 71 AUDIO
    TITLE "0:"
    INDEX 01 00:55:48
  TRACK 72 AUDIO
    TITLE "5:cjc137_6360"
    INDEX 01 00:55:53
  TRACK 73 AUDIO
    TITLE "0:"
    INDEX 01 00:56:61
  TRACK 74 AUDIO
    TITLE "4:cjc137_6361"
    INDEX 01 00:57:74
  TRACK 75 AUDIO
    TITLE "0:"
    INDEX 01 00:58:66
  TRACK 76 AUDIO
    TITLE "6:cjc137_6362"
    INDEX 01 00:59:00
  TRACK 77 AUDIO
    TITLE "0:"
    INDEX 01 01:00:06
  TRACK 78 AUDIO
    TITLE "5:cjc137_6363"
    INDEX 01 01:00:12
  TRACK 79 AUDIO
    TITLE "0:"
    INDEX 01 01:01:03
  TRACK 80 AUDIO
    TITLE "4:cjc137_6364"
    INDEX 01 01:02:16
  TRACK 81 AUDIO
    TITLE "0:"
    INDEX 01 01:03:24
  TRACK 82 AUDIO
    TITLE "6:cjc137_6365"
    INDEX 01 01:03:35
  TRACK 83 AUDIO
    TITLE "0:"
    INDEX 01 01:04:50
  TRACK 84 AUDIO
    TITLE "5:cjc137_6366"
    INDEX 01 01:04:62
  TRACK 85 AUDIO
    TITLE "0:"
    INDEX 01 01:05:73
  TRACK 86 AUDIO
    TITLE "4:cjc137_6367"
    INDEX 01 01:07:04
  TRACK 87 AUDIO
    TITLE "0:"
    INDEX 01 01:08:19
  TRACK 88 AUDIO
    TITLE "6:cjc137_6368"
    INDEX 01 01:08:23
  TRACK 89 AUDIO
    TITLE "0:"
    INDEX 01 01:09:69
  TRACK 90 AUDIO
    TITLE "5:cjc137_6369"
    INDEX 01 01:09:73
  TRACK 91 AUDIO
    TITLE "0:"
    INDEX 01 01:11:11
  TRACK 92 AUDIO
    TITLE "4:cjc137_6370"
    INDEX 01 01:12:17
  TRACK 93 AUDIO
    TITLE "0:"
    INDEX 01 01:13:28
  TRACK 94 AUDIO
    TITLE "6:cjc137_6371"
    INDEX 01 01:13:32
  TRACK 95 AUDIO
    TITLE "0:"
    INDEX 01 01:14:57
  TRACK 96 AUDIO
    TITLE "5:cjc137_6372"
    INDEX 01 01:14:63
  TRACK 97 AUDIO
    TITLE "0:"
    INDEX 01 01:15:72
  TRACK 98 AUDIO
    TITLE "4:cjc137_6373"
    INDEX 01 01:17:04
  TRACK 99 AUDIO
    TITLE "0:"
    INDEX 01 01:18:17
  TRACK 100 AUDIO
    TITLE "6:cjc137_6374"
    INDEX 01 01:18:23
  TRACK 101 AUDIO
    TITLE "0:"
    INDEX 01 01:19:17
  TRACK 102 AUDIO
    TITLE "5:cjc137_6375"
    INDEX 01 01:19:23
  TRACK 103 AUDIO
    TITLE "0:"
    INDEX 01 01:20:34
  TRACK 104 AUDIO
    TITLE "4:cjc137_6376"
    INDEX 01 01:21:43
  TRACK 105 AUDIO
    TITLE "0:"
    INDEX 01 01:22:64
  TRACK 106 AUDIO
    TITLE "6:cjc137_6377"
    INDEX 01 01:22:70
  TRACK 107 AUDIO
    TITLE "0:"
    INDEX 01 01:24:18
  TRACK 108 AUDIO
    TITLE "5:cjc137_6378"
    INDEX 01 01:24:22
  TRACK 109 AUDIO
    TITLE "0:"
    INDEX 01 01:25:41
  TRACK 110 AUDIO
    TITLE "4:cjc137_6379"
    INDEX 01 01:26:52
  TRACK 111 AUDIO
    TITLE "0:"
    INDEX 01 01:28:02
  TRACK 112 AUDIO
    TITLE "6:cjc137_6380"
    INDEX 01 01:28:06
  TRACK 113 AUDIO
    TITLE "0:"
    INDEX 01 01:29:39
  TRACK 114 AUDIO
    TITLE "5:cjc137_6381"
    INDEX 01 01:29:43
  TRACK 115 AUDIO
    TITLE "0:"
    INDEX 01 01:30:67
  TRACK 116 AUDIO
    TITLE "4:cjc137_6382"
    INDEX 01 01:31:73
  TRACK 117 AUDIO
    TITLE "0:"
    INDEX 01 01:33:23
  TRACK 118 AUDIO
    TITLE "6:cjc137_6383"
    INDEX 01 01:33:33
  TRACK 119 AUDIO
    TITLE "0:"
    INDEX 01 01:34:61
  TRACK 120 AUDIO
    TITLE "5:cjc137_6384"
    INDEX 01 01:34:65
  TRACK 121 AUDIO
    TITLE "0:"
    INDEX 01 01:36:17
